<svg xmlns="http://www.w3.org/2000/svg" viewBox="0 0 200 200" fill="none">
  <!-- Beacon tower base -->
  <rect x="75" y="120" width="50" height="60" rx="4" fill="#2f6f92"/>
  <rect x="85" y="130" width="12" height="16" rx="2" fill="#8fd0ff" opacity="0.6"/>
  <rect x="103" y="130" width="12" height="16" rx="2" fill="#8fd0ff" opacity="0.6"/>
  <rect x="85" y="152" width="12" height="16" rx="2" fill="#8fd0ff" opacity="0.6"/>
  <rect x="103" y="152" width="12" height="16" rx="2" fill="#8fd0ff" opacity="0.6"/>
  <!-- Tower top -->
  <polygon points="70,120 100,88 130,120" fill="#3c8dbc"/>
  <!-- Flame / beacon light -->
  <ellipse cx="100" cy="78" rx="14" ry="18" fill="#f39c12" opacity="0.9"/>
  <ellipse cx="100" cy="74" rx="8" ry="12" fill="#ffcc02"/>
  <ellipse cx="100" cy="70" rx="4" ry="7" fill="#ffffff" opacity="0.8"/>
  <!-- Signal waves -->
  <path d="M62 72 Q56 58 62 44" stroke="#3c8dbc" stroke-width="3" stroke-linecap="round" fill="none" opacity="0.5"/>
  <path d="M50 76 Q42 56 50 36" stroke="#3c8dbc" stroke-width="3" stroke-linecap="round" fill="none" opacity="0.35"/>
  <path d="M38 80 Q28 54 38 28" stroke="#3c8dbc" stroke-width="3" stroke-linecap="round" fill="none" opacity="0.2"/>
  <path d="M138 72 Q144 58 138 44" stroke="#3c8dbc" stroke-width="3" stroke-linecap="round" fill="none" opacity="0.5"/>
  <path d="M150 76 Q158 56 150 36" stroke="#3c8dbc" stroke-width="3" stroke-linecap="round" fill="none" opacity="0.35"/>
  <path d="M162 80 Q172 54 162 28" stroke="#3c8dbc" stroke-width="3" stroke-linecap="round" fill="none" opacity="0.2"/>
  <!-- Cloud -->
  <ellipse cx="100" cy="34" rx="28" ry="12" fill="#e8f4fd" opacity="0.7"/>
  <ellipse cx="84" cy="38" rx="16" ry="9" fill="#e8f4fd" opacity="0.5"/>
  <ellipse cx="116" cy="38" rx="16" ry="9" fill="#e8f4fd" opacity="0.5"/>
  <!-- Ground line -->
  <line x1="55" y1="180" x2="145" y2="180" stroke="#d9dee5" stroke-width="2" stroke-linecap="round"/>
</svg>
